<svg width="228" height="52" viewBox="0 0 228 52" fill="none" xmlns="http://www.w3.org/2000/svg">
<path d="M52.3545 11.7954V40H59.4163C61.5728 40 65.0825 39.6194 67.3237 37.2514C68.6768 35.8137 69.1843 34.2069 69.1843 32.1771C69.1843 30.4434 68.846 28.4983 67.3237 26.8914C65.9283 25.4537 64.1945 24.9886 63.6871 24.8617C64.3214 24.5657 65.1671 24.016 65.8014 22.9166C66.478 21.8171 66.6471 20.6754 66.6471 19.576C66.6471 17.2503 65.9283 15.432 64.406 13.9943C62.5454 12.2606 60.262 11.7954 56.6254 11.7954H52.3545ZM56.6677 15.8549H58.1477C59.374 15.8549 60.6003 15.9817 61.5728 16.912C62.4608 17.7577 62.5877 18.7726 62.5877 19.6183C62.5877 20.5909 62.4608 21.9017 61.4883 22.832C60.4734 23.8046 59.0357 23.9314 57.9785 23.9314H56.6677V15.8549ZM56.6677 27.4834H59.374C60.8963 27.4834 62.63 27.6103 63.814 28.752C64.5328 29.4709 64.9557 30.5703 64.9557 31.712C64.9557 32.9806 64.406 34.1646 63.5603 34.8411C62.4608 35.7291 60.5157 35.9406 59.2894 35.9406H56.6677V27.4834ZM86.3255 33.9954C85.9449 34.672 85.3952 35.3909 84.6763 35.9406C83.8306 36.5749 82.9849 36.8286 81.8432 36.8286C80.8283 36.8286 79.6443 36.6594 78.6718 35.6869C77.7838 34.7989 77.2341 33.3611 77.1495 32.0926H89.9198V31.5851C89.9198 29.7246 89.7083 26.4263 87.4249 24.0583C86.3678 22.9589 84.5495 21.7326 81.7163 21.7326C79.1792 21.7326 77.2341 22.6629 75.7541 24.1429C73.8935 26.0457 72.9209 28.7097 72.9209 31.4583C72.9209 34.1223 73.8512 36.5749 75.5426 38.2663C77.2341 39.9577 79.1792 40.5497 81.5472 40.5497C83.4501 40.5497 85.3529 40.1269 86.7906 39.1966C87.9323 38.4777 89.0318 37.2937 89.7929 35.9406L86.3255 33.9954ZM77.4455 28.7097C77.6569 27.8217 78.1221 26.976 78.7141 26.4263C79.2638 25.8766 80.1941 25.2846 81.6318 25.2846C82.9849 25.2846 83.8729 25.792 84.4226 26.2994C85.0569 26.8914 85.5221 27.7371 85.6912 28.7097H77.4455ZM107.275 24.2697C105.583 22.0709 103.3 21.7326 101.989 21.7326C97.2953 21.7326 93.3205 25.2846 93.3205 31.0777C93.3205 35.9829 96.4496 40.5497 101.947 40.5497C103.215 40.5497 105.456 40.2537 107.275 38.1394V40H111.419V22.1977H107.275V24.2697ZM102.496 25.4537C105.118 25.4537 107.528 27.3143 107.528 31.2046C107.528 34.9257 105.118 36.8286 102.496 36.8286C99.4942 36.8286 97.549 34.2491 97.549 31.1623C97.549 27.9909 99.4942 25.4537 102.496 25.4537ZM116.631 40H120.775V31.4583C120.775 25.7074 122.678 25.4537 124.539 25.4537C126.103 25.4537 127.795 25.5806 127.795 30.1051V40H131.939V29.0903C131.939 26.3417 131.516 25.1154 130.839 24.1429C130.29 23.3817 128.894 21.7326 125.596 21.7326C124.581 21.7326 122.551 21.8594 120.775 23.8469V22.1977H116.631V40ZM148.065 24.8617C147.43 23.72 146.627 23.0434 146.035 22.6629C145.02 21.9863 144.005 21.7326 142.737 21.7326C140.538 21.7326 139.185 22.5783 138.381 23.424C137.451 24.3966 136.901 25.792 136.901 27.2297C136.901 28.3714 137.239 29.344 138.17 30.232C138.846 30.9086 139.819 31.3737 140.622 31.7543L142.145 32.4731C142.821 32.7691 143.413 33.0651 143.921 33.5726C144.301 33.9954 144.47 34.4183 144.47 34.9257C144.47 35.4331 144.217 35.9829 143.878 36.3211C143.498 36.7017 142.821 36.9131 142.187 36.9131C141.214 36.9131 140.622 36.4903 140.369 36.2366C139.988 35.8983 139.607 35.1371 139.396 34.5451L136.013 36.152C136.436 37.4206 137.282 38.6469 138.297 39.408C139.565 40.3806 141.003 40.5497 142.145 40.5497C144.005 40.5497 145.739 40.0846 147.134 38.5623C148.107 37.5051 148.699 36.1097 148.699 34.5029C148.699 33.2766 148.361 32.1771 147.388 31.2046C146.711 30.4857 145.823 30.0206 144.893 29.5554L142.779 28.4983C141.891 28.0331 141.637 27.9486 141.383 27.7794C141.003 27.5257 140.791 27.2297 140.791 26.7646C140.791 26.384 140.961 26.0457 141.172 25.8343C141.426 25.5806 141.849 25.3691 142.441 25.3691C143.751 25.3691 144.555 26.2149 144.978 26.8914L148.065 24.8617ZM159.877 26.0034V22.1977H156.706V15.6857H152.562V22.1977H150.828V26.0034H152.562V40H156.706V26.0034H159.877ZM175.7 24.2697C174.009 22.0709 171.725 21.7326 170.414 21.7326C165.721 21.7326 161.746 25.2846 161.746 31.0777C161.746 35.9829 164.875 40.5497 170.372 40.5497C171.641 40.5497 173.882 40.2537 175.7 38.1394V40H179.844V22.1977H175.7V24.2697ZM170.922 25.4537C173.543 25.4537 175.954 27.3143 175.954 31.2046C175.954 34.9257 173.543 36.8286 170.922 36.8286C167.919 36.8286 165.974 34.2491 165.974 31.1623C165.974 27.9909 167.919 25.4537 170.922 25.4537ZM185.099 9.17371V40H189.243V9.17371H185.099ZM194.473 9.17371V40H198.617V33.1497L199.378 32.3886L205.213 40H210.457L202.253 29.5977L209.907 22.1977H204.41L198.617 28.16V9.17371H194.473Z" fill="black"/>
<rect x="0.342773" y="8.45728" width="37" height="37" rx="18.5" fill="#3EB94E"/>
<path d="M23.2444 14.3435L13.9747 39.1083C13.9747 39.1083 3.6968 21.5749 23.2444 14.3435Z" fill="white"/>
<path d="M16.1299 37.5719L22.6441 19.8691C22.6441 19.8691 34.6492 29.5811 16.1299 37.5719Z" fill="white"/>
</svg>
