<svg width="312" height="478" viewBox="0 0 312 478" fill="none" xmlns="http://www.w3.org/2000/svg">
<path d="M246.174 14.2957L57.356 465.857C57.356 465.857 -122.489 134.591 246.174 14.2957Z" fill="white"/>
<path d="M57.7427 471.962L55.0508 466.766C54.2816 465.337 -22.8863 320.619 29.4136 188.632C60.691 107.959 133.501 48.3308 245.407 12.0865L250.919 10.2677L57.7427 471.962ZM241.561 18.7117C134.398 54.8262 64.2802 112.765 33.7719 190.841C-11.7341 306.848 44.2832 433.248 57.1018 459.62L241.561 18.7117Z" fill="white"/>
<path d="M98.2456 438.706L230.918 116.014C230.918 116.014 448.835 304.121 98.2456 438.706Z" fill="white"/>
<path d="M93.5062 443.252L230.922 111.857L233.742 114.195C234.511 114.974 313.73 184.735 299.245 269.045C287.067 336.857 219.897 394.667 99.1464 440.784L93.5062 443.252ZM232.332 120.82L102.736 433.899C218.103 388.821 282.197 332.83 293.477 268.137C305.911 195.517 245.919 133.681 232.332 120.82Z" fill="white"/>
</svg>
